<svg width="19" height="18" viewBox="0 0 19 18" fill="none" xmlns="http://www.w3.org/2000/svg">
<path d="M5.66772 13.062V14.6947" stroke="#6D737A" stroke-width="1.08848" stroke-linecap="round" stroke-linejoin="round"/>
<path d="M13.2871 13.062V14.6947" stroke="#6D737A" stroke-width="1.08848" stroke-linecap="round" stroke-linejoin="round"/>
<path d="M4.5791 7.07493V3.53736C4.5791 3.17651 4.72245 2.83043 4.97761 2.57527C5.23278 2.32011 5.57885 2.17676 5.9397 2.17676C6.30056 2.17676 6.64663 2.32011 6.9018 2.57527C7.15696 2.83043 7.30031 3.17651 7.30031 3.53736" stroke="#6D737A" stroke-width="1.08848" stroke-linecap="round" stroke-linejoin="round"/>
<path d="M14.3757 6.53076H10.0217V9.79621H14.3757V6.53076Z" stroke="#6D737A" stroke-width="1.08848" stroke-linecap="round" stroke-linejoin="round"/>
<path d="M14.3755 7.0752H16.5524C16.6968 7.0752 16.8352 7.13253 16.9373 7.2346C17.0393 7.33667 17.0967 7.47509 17.0967 7.61944V9.7964C17.0967 10.6625 16.7526 11.493 16.1402 12.1054C15.5278 12.7178 14.6973 13.0618 13.8312 13.0618H5.12336C4.25731 13.0618 3.42673 12.7178 2.81434 12.1054C2.20195 11.493 1.85791 10.6625 1.85791 9.7964V7.61944C1.85791 7.47509 1.91525 7.33667 2.01731 7.2346C2.11938 7.13253 2.25781 7.0752 2.40215 7.0752H10.0215" stroke="#6D737A" stroke-width="1.08848" stroke-linecap="round" stroke-linejoin="round"/>
</svg>
