<svg width="19" height="19" viewBox="0 0 19 19" fill="none" xmlns="http://www.w3.org/2000/svg">
<path d="M5.66782 14.0527V15.6855" stroke="#6D737A" stroke-width="1.08848" stroke-linecap="round" stroke-linejoin="round"/>
<path d="M13.2872 14.0527V15.6855" stroke="#6D737A" stroke-width="1.08848" stroke-linecap="round" stroke-linejoin="round"/>
<path d="M4.57935 8.06565V4.52808C4.57935 4.16723 4.72269 3.82115 4.97786 3.56599C5.23302 3.31083 5.57909 3.16748 5.93995 3.16748C6.3008 3.16748 6.64688 3.31083 6.90204 3.56599C7.1572 3.82115 7.30055 4.16723 7.30055 4.52808" stroke="#6D737A" stroke-width="1.08848" stroke-linecap="round" stroke-linejoin="round"/>
<path d="M14.3757 7.52148H10.0218V10.7869H14.3757V7.52148Z" stroke="#6D737A" stroke-width="1.08848" stroke-linecap="round" stroke-linejoin="round"/>
<path d="M14.3757 8.06592H16.5527C16.697 8.06592 16.8354 8.12326 16.9375 8.22532C17.0396 8.32739 17.0969 8.46582 17.0969 8.61016V10.7871C17.0969 11.6532 16.7529 12.4838 16.1405 13.0961C15.5281 13.7085 14.6975 14.0526 13.8314 14.0526H5.12359C4.25754 14.0526 3.42696 13.7085 2.81457 13.0961C2.20218 12.4838 1.85814 11.6532 1.85814 10.7871V8.61016C1.85814 8.46582 1.91548 8.32739 2.01754 8.22532C2.11961 8.12326 2.25804 8.06592 2.40238 8.06592H10.0218" stroke="#6D737A" stroke-width="1.08848" stroke-linecap="round" stroke-linejoin="round"/>
</svg>
