<svg width="19" height="18" viewBox="0 0 19 18" fill="none" xmlns="http://www.w3.org/2000/svg">
<path d="M5.66785 13.062V14.6947" stroke="#6D737A" stroke-width="1.08848" stroke-linecap="round" stroke-linejoin="round"/>
<path d="M13.2872 13.062V14.6947" stroke="#6D737A" stroke-width="1.08848" stroke-linecap="round" stroke-linejoin="round"/>
<path d="M4.57935 7.07493V3.53736C4.57935 3.17651 4.72269 2.83043 4.97786 2.57527C5.23302 2.32011 5.57909 2.17676 5.93995 2.17676C6.3008 2.17676 6.64688 2.32011 6.90204 2.57527C7.1572 2.83043 7.30055 3.17651 7.30055 3.53736" stroke="#6D737A" stroke-width="1.08848" stroke-linecap="round" stroke-linejoin="round"/>
<path d="M14.3757 6.53076H10.0217V9.79621H14.3757V6.53076Z" stroke="#6D737A" stroke-width="1.08848" stroke-linecap="round" stroke-linejoin="round"/>
<path d="M14.3757 7.0752H16.5527C16.697 7.0752 16.8354 7.13253 16.9375 7.2346C17.0396 7.33667 17.0969 7.47509 17.0969 7.61944V9.7964C17.0969 10.6625 16.7529 11.493 16.1405 12.1054C15.5281 12.7178 14.6975 13.0618 13.8315 13.0618H5.1236C4.25755 13.0618 3.42697 12.7178 2.81458 12.1054C2.20219 11.493 1.85815 10.6625 1.85815 9.7964V7.61944C1.85815 7.47509 1.91549 7.33667 2.01756 7.2346C2.11962 7.13253 2.25805 7.0752 2.4024 7.0752H10.0218" stroke="#6D737A" stroke-width="1.08848" stroke-linecap="round" stroke-linejoin="round"/>
</svg>
