<svg width="18" height="19" viewBox="0 0 18 19" fill="none" xmlns="http://www.w3.org/2000/svg">
<path d="M1.08847 9.1543H16.3272" stroke="#6D737A" stroke-width="1.08848" stroke-linecap="round" stroke-linejoin="round"/>
<path d="M15.2388 13.5083V15.141C15.2388 15.2854 15.1814 15.4238 15.0793 15.5259C14.9773 15.6279 14.8389 15.6853 14.6945 15.6853H13.0618C12.9174 15.6853 12.779 15.6279 12.677 15.5259C12.5749 15.4238 12.5175 15.2854 12.5175 15.141V13.5083" stroke="#6D737A" stroke-width="1.08848" stroke-linecap="round" stroke-linejoin="round"/>
<path d="M4.89818 13.5083V15.141C4.89818 15.2854 4.84084 15.4238 4.73877 15.5259C4.63671 15.6279 4.49828 15.6853 4.35394 15.6853H2.72121C2.57687 15.6853 2.43844 15.6279 2.33638 15.5259C2.23431 15.4238 2.17697 15.2854 2.17697 15.141V13.5083" stroke="#6D737A" stroke-width="1.08848" stroke-linecap="round" stroke-linejoin="round"/>
<path d="M4.35394 11.3315H5.44243" stroke="#6D737A" stroke-width="1.08848" stroke-linecap="round" stroke-linejoin="round"/>
<path d="M11.9733 11.3315H13.0618" stroke="#6D737A" stroke-width="1.08848" stroke-linecap="round" stroke-linejoin="round"/>
<path d="M15.2388 9.15452L13.2047 4.58289C13.1625 4.48618 13.093 4.40382 13.0049 4.34584C12.9167 4.28786 12.8136 4.25677 12.708 4.25635H4.70769C4.60217 4.25677 4.49904 4.28786 4.41087 4.34584C4.3227 4.40382 4.25328 4.48618 4.21107 4.58289L2.17697 9.15452V13.5084H15.2388V9.15452Z" stroke="#6D737A" stroke-width="1.08848" stroke-linecap="round" stroke-linejoin="round"/>
</svg>
