<svg width="16" height="16" viewBox="0 0 16 16" fill="none" xmlns="http://www.w3.org/2000/svg">
<path d="M7.81466 13.1921C7.81466 13.1921 2.14548 10.0174 2.14548 6.16233C2.14548 5.48083 2.3816 4.82038 2.81366 4.29335C3.24572 3.76632 3.84704 3.40526 4.51531 3.27161C5.18357 3.13795 5.8775 3.23996 6.47903 3.56028C7.08057 3.88059 7.55254 4.39942 7.81466 5.0285V5.0285C8.07677 4.39942 8.54875 3.88059 9.15028 3.56028C9.75181 3.23996 10.4457 3.13795 11.114 3.27161C11.7823 3.40526 12.3836 3.76632 12.8157 4.29335C13.2477 4.82038 13.4838 5.48083 13.4838 6.16233C13.4838 10.0174 7.81466 13.1921 7.81466 13.1921Z" stroke="#4A60A1" stroke-width="0.936687" stroke-linecap="round" stroke-linejoin="round"/>
</svg>
