<svg width="16" height="16" viewBox="0 0 16 16" fill="none" xmlns="http://www.w3.org/2000/svg">
<path d="M7.81463 13.1921C7.81463 13.1921 2.14545 10.0174 2.14545 6.16233C2.14545 5.48083 2.38156 4.82038 2.81363 4.29335C3.24569 3.76632 3.84701 3.40526 4.51528 3.27161C5.18354 3.13795 5.87747 3.23996 6.479 3.56028C7.08054 3.88059 7.55251 4.39942 7.81463 5.0285V5.0285C8.07674 4.39942 8.54872 3.88059 9.15025 3.56028C9.75178 3.23996 10.4457 3.13795 11.114 3.27161C11.7822 3.40526 12.3836 3.76632 12.8156 4.29335C13.2477 4.82038 13.4838 5.48083 13.4838 6.16233C13.4838 10.0174 7.81463 13.1921 7.81463 13.1921Z" stroke="#4A60A1" stroke-width="0.936687" stroke-linecap="round" stroke-linejoin="round"/>
</svg>
