<svg width="16" height="16" viewBox="0 0 16 16" fill="none" xmlns="http://www.w3.org/2000/svg">
<path d="M7.81469 13.1921C7.81469 13.1921 2.14551 10.0174 2.14551 6.16233C2.14551 5.48083 2.38163 4.82038 2.81369 4.29335C3.24575 3.76632 3.84707 3.40526 4.51534 3.27161C5.1836 3.13795 5.87753 3.23996 6.47907 3.56028C7.0806 3.88059 7.55257 4.39942 7.81469 5.0285V5.0285C8.0768 4.39942 8.54878 3.88059 9.15031 3.56028C9.75184 3.23996 10.4458 3.13795 11.114 3.27161C11.7823 3.40526 12.3836 3.76632 12.8157 4.29335C13.2477 4.82038 13.4839 5.48083 13.4839 6.16233C13.4839 10.0174 7.81469 13.1921 7.81469 13.1921Z" stroke="#4A60A1" stroke-width="0.936687" stroke-linecap="round" stroke-linejoin="round"/>
</svg>
