<svg width="16" height="16" viewBox="0 0 16 16" fill="none" xmlns="http://www.w3.org/2000/svg">
<path d="M7.81466 13.1828C7.81466 13.1828 2.14548 10.0081 2.14548 6.15306C2.14548 5.47156 2.3816 4.81111 2.81366 4.28407C3.24572 3.75704 3.84704 3.39598 4.51531 3.26233C5.18357 3.12868 5.8775 3.23069 6.47903 3.551C7.08057 3.87131 7.55254 4.39014 7.81466 5.01922V5.01922C8.07677 4.39014 8.54875 3.87131 9.15028 3.551C9.75181 3.23069 10.4457 3.12868 11.114 3.26233C11.7823 3.39598 12.3836 3.75704 12.8157 4.28407C13.2477 4.81111 13.4838 5.47156 13.4838 6.15306C13.4838 10.0081 7.81466 13.1828 7.81466 13.1828Z" stroke="#4A60A1" stroke-width="0.936687" stroke-linecap="round" stroke-linejoin="round"/>
</svg>
