<svg width="16" height="16" viewBox="0 0 16 16" fill="none" xmlns="http://www.w3.org/2000/svg">
<path d="M7.81463 13.1828C7.81463 13.1828 2.14545 10.0081 2.14545 6.15306C2.14545 5.47156 2.38156 4.81111 2.81363 4.28407C3.24569 3.75704 3.84701 3.39598 4.51528 3.26233C5.18354 3.12868 5.87747 3.23069 6.479 3.551C7.08054 3.87131 7.55251 4.39014 7.81463 5.01922V5.01922C8.07674 4.39014 8.54872 3.87131 9.15025 3.551C9.75178 3.23069 10.4457 3.12868 11.114 3.26233C11.7822 3.39598 12.3836 3.75704 12.8156 4.28407C13.2477 4.81111 13.4838 5.47156 13.4838 6.15306C13.4838 10.0081 7.81463 13.1828 7.81463 13.1828Z" stroke="#4A60A1" stroke-width="0.936687" stroke-linecap="round" stroke-linejoin="round"/>
</svg>
