<svg width="44" height="45" viewBox="0 0 44 45" fill="none" xmlns="http://www.w3.org/2000/svg">
<path d="M37.125 38.1165V20.843C37.1219 20.6527 37.0808 20.465 37.0041 20.2908C36.9273 20.1167 36.8165 19.9596 36.6781 19.829L22.9281 7.33365C22.6746 7.10175 22.3435 6.97314 22 6.97314C21.6565 6.97314 21.3254 7.10175 21.0719 7.33365L7.32187 19.829C7.18351 19.9596 7.07269 20.1167 6.99595 20.2908C6.9192 20.465 6.87808 20.6527 6.875 20.843V38.1165" stroke="#4A60A1" stroke-width="2.75" stroke-linecap="round" stroke-linejoin="round"/>
<path d="M2.75 38.1157H41.25" stroke="#4A60A1" stroke-width="2.75" stroke-linecap="round" stroke-linejoin="round"/>
<path d="M26.125 38.1157V28.4907C26.125 28.126 25.9801 27.7763 25.7223 27.5184C25.4644 27.2606 25.1147 27.1157 24.75 27.1157H19.25C18.8853 27.1157 18.5356 27.2606 18.2777 27.5184C18.0199 27.7763 17.875 28.126 17.875 28.4907V38.1157" stroke="#4A60A1" stroke-width="2.75" stroke-linecap="round" stroke-linejoin="round"/>
</svg>
