<svg width="44" height="45" viewBox="0 0 44 45" fill="none" xmlns="http://www.w3.org/2000/svg">
<path d="M37.125 38.1072V20.8337C37.1219 20.6435 37.0808 20.4557 37.0041 20.2815C36.9273 20.1074 36.8165 19.9504 36.6781 19.8197L22.9281 7.32437C22.6746 7.09247 22.3435 6.96387 22 6.96387C21.6565 6.96387 21.3254 7.09247 21.0719 7.32437L7.32187 19.8197C7.18351 19.9504 7.07269 20.1074 6.99595 20.2815C6.9192 20.4557 6.87808 20.6435 6.875 20.8337V38.1072" stroke="#4A60A1" stroke-width="2.75" stroke-linecap="round" stroke-linejoin="round"/>
<path d="M2.75 38.1064H41.25" stroke="#4A60A1" stroke-width="2.75" stroke-linecap="round" stroke-linejoin="round"/>
<path d="M26.125 38.1064V28.4814C26.125 28.1168 25.9801 27.767 25.7223 27.5092C25.4644 27.2513 25.1147 27.1064 24.75 27.1064H19.25C18.8853 27.1064 18.5356 27.2513 18.2777 27.5092C18.0199 27.767 17.875 28.1168 17.875 28.4814V38.1064" stroke="#4A60A1" stroke-width="2.75" stroke-linecap="round" stroke-linejoin="round"/>
</svg>
