<svg width="78" height="78" viewBox="0 0 78 78" fill="none" xmlns="http://www.w3.org/2000/svg">
<path d="M68.8086 38.2565H68.7868C68.4911 38.2565 68.2063 38.144 67.9905 37.9445L55.739 26.5855C55.2638 26.1447 55.2366 25.4028 55.6755 24.9293C56.1163 24.4541 56.8582 24.4269 57.3317 24.8659L69.458 36.1069C69.7736 36.3173 69.9804 36.6765 69.9804 37.0828C69.9804 37.7322 69.4561 38.2565 68.8086 38.2565ZM45.2562 16.4437C44.9714 16.4437 44.6848 16.3403 44.4599 16.1317C40.9535 12.8829 38.4901 10.5973 38.4901 10.5973C38.1727 10.3034 38.0439 9.85902 38.1527 9.43999C38.2616 9.02097 38.5935 8.69809 39.0144 8.59651L39.2339 8.5439C39.8579 8.39516 40.4855 8.77609 40.6433 9.39646C41.5612 10.2472 43.5402 12.0829 46.0543 14.412C46.5296 14.8528 46.5568 15.5947 46.1178 16.0682C45.8856 16.3167 45.5718 16.4437 45.2562 16.4437Z" fill="#4A60A1"/>
<path d="M62.9297 69.4896C62.3238 69.4896 61.8105 69.0235 61.7615 68.4103C61.7416 68.1564 61.8032 67.9151 61.9248 67.7138V37.0761C61.9248 36.4285 62.449 35.9043 63.0966 35.9043C63.7442 35.9043 64.2684 36.4285 64.2684 37.0761V68.3051C64.2684 68.9164 63.7986 69.4243 63.1891 69.4733L63.0222 69.486C62.9914 69.4878 62.9605 69.4896 62.9297 69.4896Z" fill="#4A60A1"/>
<path d="M57.6599 25.4299C57.0142 25.4299 56.4881 24.9075 56.4881 24.2599L56.4664 13.9258C55.9711 13.7807 55.6156 13.32 55.6247 12.7794C55.6374 12.1318 56.1761 11.6112 56.8183 11.6294L57.6581 11.6439C58.2966 11.6548 58.8082 12.1754 58.8082 12.8139L58.8317 24.2545C58.8336 24.9021 58.3093 25.4281 57.6618 25.4299C57.6618 25.4299 57.6618 25.4299 57.6599 25.4299Z" fill="#4A60A1"/>
<path d="M56.182 26.1856C56.182 26.9713 56.8181 27.6074 57.6038 27.6074C58.3889 27.6074 59.0274 26.9718 59.0274 26.1856V12.6699C59.0274 11.8842 58.3913 11.248 57.6056 11.248H49.0546C48.269 11.248 47.6328 11.8842 47.6328 12.6699V18.2115C47.6328 18.9971 48.269 19.6333 49.0546 19.6333C49.8403 19.6333 50.4764 18.9971 50.4764 18.2115V14.0917H56.182V26.1856Z" fill="#1E2640" stroke="#1E2640" stroke-width="0.5"/>
<path d="M8.23161 36.0344L8.23138 36.0346C7.65312 36.5645 7.6106 37.4645 8.14159 38.044C8.42133 38.35 8.80667 38.506 9.19116 38.506C9.53416 38.506 9.87781 38.3827 10.1504 38.1342L10.1507 38.134L39.1057 11.6677L67.6464 38.1273L67.6467 38.1277C68.223 38.6599 69.121 38.6272 69.6558 38.0505L69.6558 38.0505C70.1887 37.4758 70.1554 36.5757 69.579 36.0411L69.5789 36.0411L40.079 8.69243C39.537 8.18792 38.6983 8.18611 38.1526 8.68556L8.23161 36.0344Z" fill="#4A60A1" stroke="#4A60A1" stroke-width="0.5"/>
<path d="M14.8071 69.7364H63.1072L64.2772 68.3128H64.5272V68.3121V33.757C64.5272 32.9713 63.8911 32.3352 63.1054 32.3352C62.3197 32.3352 61.6836 32.9713 61.6836 33.757V66.891H16.2289V32.7031C16.2289 31.9174 15.5927 31.2812 14.8071 31.2812C14.0214 31.2812 13.3853 31.9174 13.3853 32.7031V68.3146C13.3853 69.1003 14.0214 69.7364 14.8071 69.7364Z" fill="#4A60A1" stroke="#4A60A1" stroke-width="0.5"/>
<path d="M35.7375 43.5125C35.4124 42.7149 35.2468 41.8613 35.25 41C35.25 39.665 35.6459 38.3599 36.3876 37.2499C37.1293 36.1399 38.1835 35.2747 39.4169 34.7638C40.6503 34.2529 42.0075 34.1193 43.3169 34.3797C44.6262 34.6402 45.829 35.283 46.773 36.227C47.717 37.171 48.3599 38.3738 48.6203 39.6831C48.8808 40.9925 48.7471 42.3497 48.2362 43.5831C47.7253 44.8165 46.8601 45.8707 45.7501 46.6124C44.6401 47.3541 43.335 47.75 42 47.75C41.1387 47.7532 40.2851 47.5876 39.4875 47.2625V47.2625L38.25 48.5H36V50.75H33.75V53H30V49.25L35.7375 43.5125Z" stroke="#1E2640" stroke-width="1.5" stroke-linecap="round" stroke-linejoin="round"/>
<path d="M43.875 40.25C44.4963 40.25 45 39.7463 45 39.125C45 38.5037 44.4963 38 43.875 38C43.2537 38 42.75 38.5037 42.75 39.125C42.75 39.7463 43.2537 40.25 43.875 40.25Z" fill="#1E2640"/>
</svg>
