<svg width="24" height="25" viewBox="0 0 24 25" fill="none" xmlns="http://www.w3.org/2000/svg">
<path d="M12 13.7407C13.6569 13.7407 15 12.3976 15 10.7407C15 9.08387 13.6569 7.74072 12 7.74072C10.3431 7.74072 9 9.08387 9 10.7407C9 12.3976 10.3431 13.7407 12 13.7407Z" stroke="white" stroke-width="1.5" stroke-linecap="round" stroke-linejoin="round"/>
<path d="M19.5 10.7407C19.5 17.4907 12 22.7407 12 22.7407C12 22.7407 4.5 17.4907 4.5 10.7407C4.5 8.7516 5.29018 6.84394 6.6967 5.43742C8.10322 4.0309 10.0109 3.24072 12 3.24072C13.9891 3.24072 15.8968 4.0309 17.3033 5.43742C18.7098 6.84394 19.5 8.7516 19.5 10.7407V10.7407Z" stroke="white" stroke-width="1.5" stroke-linecap="round" stroke-linejoin="round"/>
</svg>
