<svg width="16" height="16" viewBox="0 0 16 16" fill="none" xmlns="http://www.w3.org/2000/svg">
<path d="M4.16021 10.0082C5.16213 10.0082 5.97434 9.19594 5.97434 8.19402C5.97434 7.1921 5.16213 6.37988 4.16021 6.37988C3.15829 6.37988 2.34607 7.1921 2.34607 8.19402C2.34607 9.19594 3.15829 10.0082 4.16021 10.0082Z" stroke="#4A60A1" stroke-width="0.936687" stroke-linecap="round" stroke-linejoin="round"/>
<path d="M10.5097 14.0902C11.5116 14.0902 12.3238 13.278 12.3238 12.2761C12.3238 11.2741 11.5116 10.4619 10.5097 10.4619C9.50777 10.4619 8.69556 11.2741 8.69556 12.2761C8.69556 13.278 9.50777 14.0902 10.5097 14.0902Z" stroke="#4A60A1" stroke-width="0.936687" stroke-linecap="round" stroke-linejoin="round"/>
<path d="M10.5097 5.92613C11.5116 5.92613 12.3238 5.11391 12.3238 4.11199C12.3238 3.11007 11.5116 2.29785 10.5097 2.29785C9.50777 2.29785 8.69556 3.11007 8.69556 4.11199C8.69556 5.11391 9.50777 5.92613 10.5097 5.92613Z" stroke="#4A60A1" stroke-width="0.936687" stroke-linecap="round" stroke-linejoin="round"/>
<path d="M8.98464 5.09326L5.68518 7.21353" stroke="#4A60A1" stroke-width="0.936687" stroke-linecap="round" stroke-linejoin="round"/>
<path d="M5.68518 9.1748L8.98464 11.2951" stroke="#4A60A1" stroke-width="0.936687" stroke-linecap="round" stroke-linejoin="round"/>
</svg>
