<svg width="16" height="16" viewBox="0 0 16 16" fill="none" xmlns="http://www.w3.org/2000/svg">
<path d="M4.16018 10.0082C5.1621 10.0082 5.97431 9.19594 5.97431 8.19402C5.97431 7.1921 5.1621 6.37988 4.16018 6.37988C3.15826 6.37988 2.34604 7.1921 2.34604 8.19402C2.34604 9.19594 3.15826 10.0082 4.16018 10.0082Z" stroke="#4A60A1" stroke-width="0.936687" stroke-linecap="round" stroke-linejoin="round"/>
<path d="M10.5096 14.0902C11.5116 14.0902 12.3238 13.278 12.3238 12.2761C12.3238 11.2741 11.5116 10.4619 10.5096 10.4619C9.50771 10.4619 8.6955 11.2741 8.6955 12.2761C8.6955 13.278 9.50771 14.0902 10.5096 14.0902Z" stroke="#4A60A1" stroke-width="0.936687" stroke-linecap="round" stroke-linejoin="round"/>
<path d="M10.5096 5.92613C11.5116 5.92613 12.3238 5.11391 12.3238 4.11199C12.3238 3.11007 11.5116 2.29785 10.5096 2.29785C9.50771 2.29785 8.6955 3.11007 8.6955 4.11199C8.6955 5.11391 9.50771 5.92613 10.5096 5.92613Z" stroke="#4A60A1" stroke-width="0.936687" stroke-linecap="round" stroke-linejoin="round"/>
<path d="M8.98464 5.09326L5.68518 7.21353" stroke="#4A60A1" stroke-width="0.936687" stroke-linecap="round" stroke-linejoin="round"/>
<path d="M5.68518 9.1748L8.98464 11.2951" stroke="#4A60A1" stroke-width="0.936687" stroke-linecap="round" stroke-linejoin="round"/>
</svg>
