<svg width="16" height="16" viewBox="0 0 16 16" fill="none" xmlns="http://www.w3.org/2000/svg">
<path d="M4.16008 10.0174C5.16201 10.0174 5.97422 9.20522 5.97422 8.2033C5.97422 7.20138 5.16201 6.38916 4.16008 6.38916C3.15816 6.38916 2.34595 7.20138 2.34595 8.2033C2.34595 9.20522 3.15816 10.0174 4.16008 10.0174Z" stroke="#4A60A1" stroke-width="0.936687" stroke-linecap="round" stroke-linejoin="round"/>
<path d="M10.5096 14.0995C11.5115 14.0995 12.3237 13.2872 12.3237 12.2853C12.3237 11.2834 11.5115 10.4712 10.5096 10.4712C9.50765 10.4712 8.69543 11.2834 8.69543 12.2853C8.69543 13.2872 9.50765 14.0995 10.5096 14.0995Z" stroke="#4A60A1" stroke-width="0.936687" stroke-linecap="round" stroke-linejoin="round"/>
<path d="M10.5096 5.9354C11.5115 5.9354 12.3237 5.12319 12.3237 4.12127C12.3237 3.11935 11.5115 2.30713 10.5096 2.30713C9.50765 2.30713 8.69543 3.11935 8.69543 4.12127C8.69543 5.12319 9.50765 5.9354 10.5096 5.9354Z" stroke="#4A60A1" stroke-width="0.936687" stroke-linecap="round" stroke-linejoin="round"/>
<path d="M8.98464 5.10254L5.68518 7.22281" stroke="#4A60A1" stroke-width="0.936687" stroke-linecap="round" stroke-linejoin="round"/>
<path d="M5.68518 9.18408L8.98464 11.3044" stroke="#4A60A1" stroke-width="0.936687" stroke-linecap="round" stroke-linejoin="round"/>
</svg>
