<svg width="16" height="16" viewBox="0 0 16 16" fill="none" xmlns="http://www.w3.org/2000/svg">
<path d="M4.16018 10.0174C5.1621 10.0174 5.97431 9.20522 5.97431 8.2033C5.97431 7.20138 5.1621 6.38916 4.16018 6.38916C3.15826 6.38916 2.34604 7.20138 2.34604 8.2033C2.34604 9.20522 3.15826 10.0174 4.16018 10.0174Z" stroke="#4A60A1" stroke-width="0.936687" stroke-linecap="round" stroke-linejoin="round"/>
<path d="M10.5096 14.0995C11.5116 14.0995 12.3238 13.2872 12.3238 12.2853C12.3238 11.2834 11.5116 10.4712 10.5096 10.4712C9.50771 10.4712 8.6955 11.2834 8.6955 12.2853C8.6955 13.2872 9.50771 14.0995 10.5096 14.0995Z" stroke="#4A60A1" stroke-width="0.936687" stroke-linecap="round" stroke-linejoin="round"/>
<path d="M10.5096 5.9354C11.5116 5.9354 12.3238 5.12319 12.3238 4.12127C12.3238 3.11935 11.5116 2.30713 10.5096 2.30713C9.50771 2.30713 8.6955 3.11935 8.6955 4.12127C8.6955 5.12319 9.50771 5.9354 10.5096 5.9354Z" stroke="#4A60A1" stroke-width="0.936687" stroke-linecap="round" stroke-linejoin="round"/>
<path d="M8.98464 5.10254L5.68518 7.22281" stroke="#4A60A1" stroke-width="0.936687" stroke-linecap="round" stroke-linejoin="round"/>
<path d="M5.68518 9.18408L8.98464 11.3044" stroke="#4A60A1" stroke-width="0.936687" stroke-linecap="round" stroke-linejoin="round"/>
</svg>
