<svg width="20" height="21" viewBox="0 0 20 21" fill="none" xmlns="http://www.w3.org/2000/svg">
<g clip-path="url(#clip0_308_2384)">
<path d="M0 10.9814C0 9.16811 0.44668 7.49479 1.34 5.96145C2.23334 4.42811 3.44668 3.21479 4.98 2.32145C6.51334 1.42811 8.18668 0.981445 10 0.981445C11.8133 0.981445 13.4867 1.42811 15.02 2.32145C16.5533 3.21479 17.7667 4.42811 18.66 5.96145C19.5533 7.49479 20 9.16811 20 10.9814C20 12.7948 19.5533 14.4681 18.66 16.0014C17.7667 17.5348 16.5533 18.7481 15.02 19.6414C13.4867 20.5348 11.8133 20.9814 10 20.9814C8.18668 20.9814 6.51334 20.5348 4.98 19.6414C3.44668 18.7481 2.23334 17.5348 1.34 16.0014C0.44668 14.4681 0 12.7948 0 10.9814ZM1.66 10.9814C1.66 13.0614 2.36 14.8948 3.76 16.4814C4.4 15.2281 5.41334 14.0348 6.8 12.9014C8.18668 11.7681 9.54 11.0548 10.86 10.7614C10.66 10.2948 10.4667 9.87479 10.28 9.50144C7.98668 10.2348 5.50668 10.6014 2.84 10.6014C2.32 10.6014 1.93334 10.5948 1.68 10.5814C1.68 10.6348 1.67668 10.7014 1.67 10.7814C1.66334 10.8614 1.66 10.9281 1.66 10.9814ZM1.92 8.92145C2.21334 8.94811 2.64668 8.96145 3.22 8.96145C5.44668 8.96145 7.56 8.66145 9.56 8.06145C8.54668 6.26145 7.43334 4.76145 6.22 3.56145C5.16668 4.09479 4.26334 4.83479 3.51 5.78145C2.75668 6.72811 2.22668 7.77479 1.92 8.92145ZM4.9 17.5614C6.40668 18.7348 8.10668 19.3214 10 19.3214C10.9867 19.3214 11.9667 19.1348 12.94 18.7614C12.6733 16.4814 12.1533 14.2748 11.38 12.1414C10.1533 12.4081 8.91668 13.0814 7.67 14.1614C6.42334 15.2414 5.5 16.3748 4.9 17.5614ZM7.96 2.92145C9.13334 4.13479 10.22 5.64811 11.22 7.46145C13.0333 6.70145 14.4 5.73479 15.32 4.56145C13.7733 3.28145 12 2.64145 10 2.64145C9.32 2.64145 8.64 2.73479 7.96 2.92145ZM11.94 8.88144C12.14 9.30811 12.3667 9.84811 12.62 10.5014C13.6067 10.4081 14.68 10.3614 15.84 10.3614C16.6667 10.3614 17.4867 10.3814 18.3 10.4214C18.1933 8.60811 17.54 6.99479 16.34 5.58145C15.4733 6.87478 14.0067 7.97479 11.94 8.88144ZM13.12 11.9014C13.8 13.8748 14.26 15.9014 14.5 17.9814C15.5533 17.3014 16.4133 16.4281 17.08 15.3614C17.7467 14.2948 18.1467 13.1414 18.28 11.9014C17.3067 11.8348 16.42 11.8014 15.62 11.8014C14.8867 11.8014 14.0533 11.8348 13.12 11.9014Z" fill="#4A60A1"/>
</g>
<defs>
<clipPath id="clip0_308_2384">
<rect width="20" height="20" fill="white" transform="translate(0 0.981445)"/>
</clipPath>
</defs>
</svg>
