<svg width="20" height="21" viewBox="0 0 20 21" fill="none" xmlns="http://www.w3.org/2000/svg">
<g clip-path="url(#clip0_308_2058)">
<path d="M0 3.31346C0 2.64005 0.225232 2.0845 0.675676 1.6468C1.12612 1.20908 1.71172 0.990234 2.43243 0.990234C3.14029 0.990234 3.71299 1.20571 4.15058 1.6367C4.60102 2.08114 4.82625 2.66025 4.82625 3.37407C4.82625 4.02053 4.60747 4.55924 4.16988 4.99023C3.71944 5.43467 3.12741 5.65689 2.39382 5.65689H2.37452C1.66666 5.65689 1.09396 5.43467 0.656371 4.99023C0.218784 4.54578 0 3.98686 0 3.31346ZM0.250965 20.9902V7.49527H4.53668V20.9902H0.250965ZM6.9112 20.9902H11.1969V13.4549C11.1969 12.9835 11.2484 12.6198 11.3514 12.364C11.5315 11.906 11.805 11.5188 12.1718 11.2023C12.5386 10.8858 12.9987 10.7276 13.5521 10.7276C14.9936 10.7276 15.7143 11.7444 15.7143 13.7781V20.9902H20V13.2528C20 11.2596 19.5496 9.7478 18.6486 8.71749C17.7477 7.68719 16.5573 7.17204 15.0772 7.17204C13.417 7.17204 12.1236 7.91952 11.1969 9.41446V9.45487H11.1776L11.1969 9.41446V7.49527H6.9112C6.93693 7.92624 6.94981 9.2663 6.94981 11.5155C6.94981 13.7646 6.93693 16.9229 6.9112 20.9902Z" fill="#4A60A1"/>
</g>
<defs>
<clipPath id="clip0_308_2058">
<rect width="20" height="20" fill="white" transform="translate(0 0.990234)"/>
</clipPath>
</defs>
</svg>
