<svg width="20" height="21" viewBox="0 0 20 21" fill="none" xmlns="http://www.w3.org/2000/svg">
<g clip-path="url(#clip0_308_2060)">
<path d="M6.66721 10.9902C6.66721 9.14936 8.15913 7.65663 10 7.65663C11.8409 7.65663 13.3336 9.14936 13.3336 10.9902C13.3336 12.8311 11.8409 14.3238 10 14.3238C8.15913 14.3238 6.66721 12.8311 6.66721 10.9902ZM4.86511 10.9902C4.86511 13.8263 7.16397 16.1251 10 16.1251C12.836 16.1251 15.1349 13.8263 15.1349 10.9902C15.1349 8.15421 12.836 5.85534 10 5.85534C7.16397 5.85534 4.86511 8.15421 4.86511 10.9902ZM14.1381 5.65178C14.1381 6.31414 14.6753 6.85211 15.3385 6.85211C16.0008 6.85211 16.5388 6.31414 16.5388 5.65178C16.5388 4.98943 16.0016 4.45227 15.3385 4.45227C14.6753 4.45227 14.1381 4.98943 14.1381 5.65178ZM5.95961 19.13C4.98465 19.0855 4.45477 18.9232 4.10259 18.7859C3.6357 18.6041 3.30291 18.3876 2.95234 18.0379C2.60259 17.6881 2.3853 17.3553 2.20436 16.8885C2.06704 16.5363 1.90469 16.0064 1.86026 15.0314C1.81179 13.9773 1.8021 13.6607 1.8021 10.9902C1.8021 8.3198 1.8126 8.00397 1.86026 6.94904C1.90469 5.97408 2.06785 5.445 2.20436 5.09201C2.38611 4.62513 2.60259 4.29233 2.95234 3.94177C3.3021 3.59201 3.6349 3.37473 4.10259 3.19379C4.45477 3.05647 4.98465 2.89411 5.95961 2.84969C7.01373 2.80122 7.33037 2.79153 10 2.79153C12.6704 2.79153 12.9863 2.80203 14.0412 2.84969C15.0162 2.89411 15.5452 3.05728 15.8982 3.19379C16.3651 3.37473 16.6979 3.59201 17.0485 3.94177C17.3982 4.29153 17.6147 4.62513 17.7964 5.09201C17.9338 5.44419 18.0961 5.97408 18.1406 6.94904C18.189 8.00397 18.1987 8.3198 18.1987 10.9902C18.1987 13.6599 18.189 13.9765 18.1406 15.0314C18.0961 16.0064 17.933 16.5363 17.7964 16.8885C17.6147 17.3553 17.3982 17.6881 17.0485 18.0379C16.6987 18.3876 16.3651 18.6041 15.8982 18.7859C15.546 18.9232 15.0162 19.0855 14.0412 19.13C12.9871 19.1784 12.6704 19.1881 10 19.1881C7.33037 19.1881 7.01373 19.1784 5.95961 19.13ZM5.87722 1.05082C4.8126 1.09928 4.08562 1.2681 3.44992 1.51527C2.79241 1.77053 2.23506 2.11301 1.67851 2.66875C1.12278 3.22448 0.780291 3.78183 0.52504 4.44015C0.277868 5.07586 0.109047 5.80283 0.0605816 6.86746C0.0113086 7.93369 0 8.27456 0 10.9902C0 13.7059 0.0113086 14.0468 0.0605816 15.113C0.109047 16.1776 0.277868 16.9046 0.52504 17.5403C0.780291 18.1978 1.12197 18.756 1.67851 19.3117C2.23425 19.8675 2.7916 20.2091 3.44992 20.4652C4.08643 20.7124 4.8126 20.8812 5.87722 20.9297C6.94427 20.9781 7.28433 20.9902 10 20.9902C12.7165 20.9902 13.0565 20.9789 14.1228 20.9297C15.1874 20.8812 15.9144 20.7124 16.5501 20.4652C17.2076 20.2091 17.7649 19.8675 18.3215 19.3117C18.8772 18.756 19.2189 18.1978 19.475 17.5403C19.7221 16.9046 19.8918 16.1776 19.9394 15.113C19.9879 14.046 19.9992 13.7059 19.9992 10.9902C19.9992 8.27456 19.9879 7.93369 19.9394 6.86746C19.891 5.80283 19.7221 5.07586 19.475 4.44015C19.2189 3.78264 18.8772 3.22529 18.3215 2.66875C17.7658 2.11301 17.2076 1.77053 16.5509 1.51527C15.9144 1.2681 15.1874 1.09847 14.1236 1.05082C13.0574 1.00235 12.7165 0.990234 10.0008 0.990234C7.28433 0.990234 6.94427 1.00154 5.87722 1.05082Z" fill="#4A60A1"/>
</g>
<defs>
<clipPath id="clip0_308_2060">
<rect width="20" height="20" fill="white" transform="translate(0 0.990234)"/>
</clipPath>
</defs>
</svg>
