<svg width="20" height="21" viewBox="0 0 20 21" fill="none" xmlns="http://www.w3.org/2000/svg">
<g clip-path="url(#clip0_308_2386)">
<path d="M0 3.30467C0 2.63126 0.225232 2.07571 0.675676 1.63801C1.12612 1.20029 1.71172 0.981445 2.43243 0.981445C3.14029 0.981445 3.71299 1.19692 4.15058 1.62791C4.60102 2.07235 4.82625 2.65146 4.82625 3.36528C4.82625 4.01174 4.60747 4.55045 4.16988 4.98144C3.71944 5.42588 3.12741 5.6481 2.39382 5.6481H2.37452C1.66666 5.6481 1.09396 5.42588 0.656371 4.98144C0.218784 4.53699 0 3.97807 0 3.30467ZM0.250965 20.9814V7.48648H4.53668V20.9814H0.250965ZM6.9112 20.9814H11.1969V13.4461C11.1969 12.9747 11.2484 12.611 11.3514 12.3552C11.5315 11.8972 11.805 11.51 12.1718 11.1935C12.5386 10.877 12.9987 10.7188 13.5521 10.7188C14.9936 10.7188 15.7143 11.7356 15.7143 13.7693V20.9814H20V13.2441C20 11.2508 19.5496 9.73901 18.6486 8.7087C17.7477 7.6784 16.5573 7.16325 15.0772 7.16325C13.417 7.16325 12.1236 7.91073 11.1969 9.40567V9.44608H11.1776L11.1969 9.40567V7.48648H6.9112C6.93693 7.91745 6.94981 9.25751 6.94981 11.5067C6.94981 13.7558 6.93693 16.9141 6.9112 20.9814Z" fill="#4A60A1"/>
</g>
<defs>
<clipPath id="clip0_308_2386">
<rect width="20" height="20" fill="white" transform="translate(0 0.981445)"/>
</clipPath>
</defs>
</svg>
