<svg width="20" height="21" viewBox="0 0 20 21" fill="none" xmlns="http://www.w3.org/2000/svg">
<g clip-path="url(#clip0_308_2388)">
<path d="M6.66721 10.9814C6.66721 9.14057 8.15913 7.64784 10 7.64784C11.8409 7.64784 13.3336 9.14057 13.3336 10.9814C13.3336 12.8223 11.8409 14.315 10 14.315C8.15913 14.315 6.66721 12.8223 6.66721 10.9814ZM4.86511 10.9814C4.86511 13.8175 7.16397 16.1163 10 16.1163C12.836 16.1163 15.1349 13.8175 15.1349 10.9814C15.1349 8.14542 12.836 5.84655 10 5.84655C7.16397 5.84655 4.86511 8.14542 4.86511 10.9814ZM14.1381 5.643C14.1381 6.30535 14.6753 6.84332 15.3385 6.84332C16.0008 6.84332 16.5388 6.30535 16.5388 5.643C16.5388 4.98064 16.0016 4.44348 15.3385 4.44348C14.6753 4.44348 14.1381 4.98064 14.1381 5.643ZM5.95961 19.1212C4.98465 19.0768 4.45477 18.9144 4.10259 18.7771C3.6357 18.5953 3.30291 18.3789 2.95234 18.0291C2.60259 17.6793 2.3853 17.3465 2.20436 16.8797C2.06704 16.5275 1.90469 15.9976 1.86026 15.0226C1.81179 13.9685 1.8021 13.6519 1.8021 10.9814C1.8021 8.31101 1.8126 7.99518 1.86026 6.94025C1.90469 5.96529 2.06785 5.43621 2.20436 5.08322C2.38611 4.61634 2.60259 4.28355 2.95234 3.93298C3.3021 3.58322 3.6349 3.36594 4.10259 3.185C4.45477 3.04768 4.98465 2.88532 5.95961 2.8409C7.01373 2.79243 7.33037 2.78274 10 2.78274C12.6704 2.78274 12.9863 2.79324 14.0412 2.8409C15.0162 2.88532 15.5452 3.04849 15.8982 3.185C16.3651 3.36594 16.6979 3.58322 17.0485 3.93298C17.3982 4.28274 17.6147 4.61634 17.7964 5.08322C17.9338 5.4354 18.0961 5.96529 18.1406 6.94025C18.189 7.99518 18.1987 8.31101 18.1987 10.9814C18.1987 13.6511 18.189 13.9677 18.1406 15.0226C18.0961 15.9976 17.933 16.5275 17.7964 16.8797C17.6147 17.3465 17.3982 17.6793 17.0485 18.0291C16.6987 18.3789 16.3651 18.5953 15.8982 18.7771C15.546 18.9144 15.0162 19.0768 14.0412 19.1212C12.9871 19.1697 12.6704 19.1793 10 19.1793C7.33037 19.1793 7.01373 19.1697 5.95961 19.1212ZM5.87722 1.04203C4.8126 1.09049 4.08562 1.25931 3.44992 1.50649C2.79241 1.76174 2.23506 2.10422 1.67851 2.65996C1.12278 3.21569 0.780291 3.77304 0.52504 4.43136C0.277868 5.06707 0.109047 5.79405 0.0605816 6.85867C0.0113086 7.9249 0 8.26577 0 10.9814C0 13.6971 0.0113086 14.038 0.0605816 15.1042C0.109047 16.1688 0.277868 16.8958 0.52504 17.5315C0.780291 18.189 1.12197 18.7472 1.67851 19.3029C2.23425 19.8587 2.7916 20.2003 3.44992 20.4564C4.08643 20.7036 4.8126 20.8724 5.87722 20.9209C6.94427 20.9693 7.28433 20.9814 10 20.9814C12.7165 20.9814 13.0565 20.9701 14.1228 20.9209C15.1874 20.8724 15.9144 20.7036 16.5501 20.4564C17.2076 20.2003 17.7649 19.8587 18.3215 19.3029C18.8772 18.7472 19.2189 18.189 19.475 17.5315C19.7221 16.8958 19.8918 16.1688 19.9394 15.1042C19.9879 14.0372 19.9992 13.6971 19.9992 10.9814C19.9992 8.26577 19.9879 7.9249 19.9394 6.85867C19.891 5.79405 19.7221 5.06707 19.475 4.43136C19.2189 3.77385 18.8772 3.2165 18.3215 2.65996C17.7658 2.10422 17.2076 1.76174 16.5509 1.50649C15.9144 1.25931 15.1874 1.08968 14.1236 1.04203C13.0574 0.993562 12.7165 0.981445 10.0008 0.981445C7.28433 0.981445 6.94427 0.992754 5.87722 1.04203Z" fill="#4A60A1"/>
</g>
<defs>
<clipPath id="clip0_308_2388">
<rect width="20" height="20" fill="white" transform="translate(0 0.981445)"/>
</clipPath>
</defs>
</svg>
