<svg width="20" height="21" viewBox="0 0 20 21" fill="none" xmlns="http://www.w3.org/2000/svg">
<path d="M8.07031 9.91164C8.07031 9.91164 9.96264 9.77297 9.96264 7.58268C9.96264 5.39222 8.41448 4.32324 6.4534 4.32324H0.000244141V16.5638H6.4534C6.4534 16.5638 10.3928 16.6866 10.3928 12.9509C10.3928 12.951 10.5646 9.91164 8.07031 9.91164ZM5.9889 6.49886H6.4534C6.4534 6.49886 7.33057 6.49886 7.33057 7.77244C7.33057 9.04586 6.8147 9.23049 6.22956 9.23049H2.84359V6.49886H5.9889ZM6.27104 14.3883H2.84359V11.1171H6.4534C6.4534 11.1171 7.76078 11.1002 7.76078 12.7981C7.76078 14.2299 6.78429 14.3774 6.27104 14.3883ZM15.6467 7.4376C10.8776 7.4376 10.8818 12.1408 10.8818 12.1408C10.8818 12.1408 10.5546 16.8198 15.6467 16.8198C15.6467 16.8198 19.8901 17.0591 19.8901 13.5649H17.7078C17.7078 13.5649 17.7805 14.8808 15.7195 14.8808C15.7195 14.8808 13.5368 15.0251 13.5368 12.7512H19.9628C19.9628 12.7511 20.666 7.4376 15.6467 7.4376ZM13.5129 11.1171C13.5129 11.1171 13.7793 9.23045 15.6952 9.23045C17.6106 9.23045 17.5866 11.1171 17.5866 11.1171H13.5129ZM18.095 6.5517H12.9786V5.04437H18.095V6.5517Z" fill="#4A60A1"/>
</svg>
