<svg width="20" height="21" viewBox="0 0 20 21" fill="none" xmlns="http://www.w3.org/2000/svg">
<path d="M8.07034 9.90334C8.07034 9.90334 9.96267 9.76467 9.96267 7.57438C9.96267 5.38392 8.41451 4.31494 6.45343 4.31494H0.000274658V16.5555H6.45343C6.45343 16.5555 10.3928 16.6783 10.3928 12.9426C10.3928 12.9427 10.5646 9.90334 8.07034 9.90334ZM5.98893 6.49056H6.45343C6.45343 6.49056 7.3306 6.49056 7.3306 7.76414C7.3306 9.03756 6.81473 9.22219 6.22959 9.22219H2.84362V6.49056H5.98893ZM6.27107 14.38H2.84362V11.1088H6.45343C6.45343 11.1088 7.76081 11.0919 7.76081 12.7898C7.76081 14.2216 6.78432 14.3691 6.27107 14.38ZM15.6467 7.4293C10.8776 7.4293 10.8819 12.1325 10.8819 12.1325C10.8819 12.1325 10.5547 16.8115 15.6467 16.8115C15.6467 16.8115 19.8901 17.0508 19.8901 13.5566H17.7078C17.7078 13.5566 17.7806 14.8725 15.7195 14.8725C15.7195 14.8725 13.5369 15.0168 13.5369 12.7429H19.9629C19.9629 12.7428 20.666 7.4293 15.6467 7.4293ZM13.5129 11.1088C13.5129 11.1088 13.7794 9.22215 15.6952 9.22215C17.6107 9.22215 17.5867 11.1088 17.5867 11.1088H13.5129ZM18.095 6.5434H12.9786V5.03607H18.095V6.5434Z" fill="#4A60A1"/>
</svg>
