<svg width="20" height="21" viewBox="0 0 20 21" fill="none" xmlns="http://www.w3.org/2000/svg">
<g clip-path="url(#clip0_308_2056)">
<path d="M0 10.9902C0 9.17689 0.44668 7.50357 1.34 5.97023C2.23334 4.43689 3.44668 3.22357 4.98 2.33023C6.51334 1.43689 8.18668 0.990234 10 0.990234C11.8133 0.990234 13.4867 1.43689 15.02 2.33023C16.5533 3.22357 17.7667 4.43689 18.66 5.97023C19.5533 7.50357 20 9.17689 20 10.9902C20 12.8036 19.5533 14.4769 18.66 16.0102C17.7667 17.5436 16.5533 18.7569 15.02 19.6502C13.4867 20.5436 11.8133 20.9902 10 20.9902C8.18668 20.9902 6.51334 20.5436 4.98 19.6502C3.44668 18.7569 2.23334 17.5436 1.34 16.0102C0.44668 14.4769 0 12.8036 0 10.9902ZM1.66 10.9902C1.66 13.0702 2.36 14.9036 3.76 16.4902C4.4 15.2369 5.41334 14.0436 6.8 12.9102C8.18668 11.7769 9.54 11.0636 10.86 10.7702C10.66 10.3036 10.4667 9.88357 10.28 9.51023C7.98668 10.2436 5.50668 10.6102 2.84 10.6102C2.32 10.6102 1.93334 10.6036 1.68 10.5902C1.68 10.6436 1.67668 10.7102 1.67 10.7902C1.66334 10.8702 1.66 10.9369 1.66 10.9902ZM1.92 8.93023C2.21334 8.95689 2.64668 8.97023 3.22 8.97023C5.44668 8.97023 7.56 8.67023 9.56 8.07023C8.54668 6.27023 7.43334 4.77023 6.22 3.57023C5.16668 4.10357 4.26334 4.84357 3.51 5.79023C2.75668 6.73689 2.22668 7.78357 1.92 8.93023ZM4.9 17.5702C6.40668 18.7436 8.10668 19.3302 10 19.3302C10.9867 19.3302 11.9667 19.1436 12.94 18.7702C12.6733 16.4902 12.1533 14.2836 11.38 12.1502C10.1533 12.4169 8.91668 13.0902 7.67 14.1702C6.42334 15.2502 5.5 16.3836 4.9 17.5702ZM7.96 2.93023C9.13334 4.14357 10.22 5.65689 11.22 7.47023C13.0333 6.71023 14.4 5.74357 15.32 4.57023C13.7733 3.29023 12 2.65023 10 2.65023C9.32 2.65023 8.64 2.74357 7.96 2.93023ZM11.94 8.89023C12.14 9.31689 12.3667 9.85689 12.62 10.5102C13.6067 10.4169 14.68 10.3702 15.84 10.3702C16.6667 10.3702 17.4867 10.3902 18.3 10.4302C18.1933 8.61689 17.54 7.00357 16.34 5.59023C15.4733 6.88357 14.0067 7.98357 11.94 8.89023ZM13.12 11.9102C13.8 13.8836 14.26 15.9102 14.5 17.9902C15.5533 17.3102 16.4133 16.4369 17.08 15.3702C17.7467 14.3036 18.1467 13.1502 18.28 11.9102C17.3067 11.8436 16.42 11.8102 15.62 11.8102C14.8867 11.8102 14.0533 11.8436 13.12 11.9102Z" fill="#4A60A1"/>
</g>
<defs>
<clipPath id="clip0_308_2056">
<rect width="20" height="20" fill="white" transform="translate(0 0.990234)"/>
</clipPath>
</defs>
</svg>
